<svg style="position: absolute; width: 0; height: 0; overflow: hidden;" version="1.1" xmlns="http://www.w3.org/2000/svg" xmlns:xlink="http://www.w3.org/1999/xlink">
    <defs>
    <symbol id="icon-linkedin" viewBox="0 0 32 32">
        <path d="M5 3c0 1.062-0.71 1.976-2.001 1.976-1.215 0-1.999-0.862-1.999-1.924 0-1.090 0.76-2.052 2-2.052s1.976 0.91 2 2zM1 19v-13h4v13h-4z"></path>
        <path d="M7 10.444c0-1.545-0.051-2.836-0.102-3.951h3.594l0.178 1.723h0.076c0.506-0.811 1.746-2 3.822-2 2.532 0 4.432 1.695 4.432 5.342v7.442h-4v-6.861c0-1.594-0.607-2.81-2-2.81-1.062 0-1.594 0.86-1.873 1.569-0.102 0.254-0.127 0.608-0.127 0.963v7.139h-4v-8.556z"></path>
    </symbol>


    <symbol id="icon-github" viewBox="0 0 32 32">
<path d="M179.858,392.884c0,1.855-2.133,3.339-4.822,3.339c-3.062,0.277-5.193-1.205-5.193-3.339c0-1.854,2.132-3.34,4.823-3.34    C177.448,389.267,179.858,390.75,179.858,392.884z M151.017,388.709c-0.649,1.857,1.205,3.988,3.987,4.544    c2.411,0.928,5.194,0,5.75-1.853c0.558-1.856-1.205-3.988-3.987-4.824C154.355,385.929,151.666,386.855,151.017,388.709    L151.017,388.709z M192.008,387.133c-2.689,0.65-4.544,2.411-4.267,4.544c0.279,1.854,2.69,3.063,5.473,2.413    c2.69-0.65,4.544-2.413,4.266-4.267C197.201,388.06,194.698,386.855,192.008,387.133z M253.032,31.747    c-128.634,0-227.031,97.656-227.031,226.291c0,102.851,64.732,190.862,157.197,221.839c11.871,2.133,16.044-5.194,16.044-11.223    c0-5.75-0.277-37.469-0.277-56.942c0,0-64.921,13.911-78.554-27.639c0,0-10.572-26.988-25.782-33.944    c0,0-21.238-14.56,1.484-14.281c0,0,23.094,1.856,35.799,23.928c20.31,35.799,54.346,25.505,67.607,19.383    c2.134-14.839,8.162-25.133,14.84-31.254c-51.843-5.75-104.149-13.263-104.149-102.479c0-25.504,7.048-38.302,21.888-54.625    c-2.411-6.028-10.295-30.882,2.411-62.972c19.383-6.028,63.99,25.041,63.99,25.041c18.55-5.194,38.489-7.883,58.242-7.883    c19.755,0,39.694,2.689,58.241,7.883c0,0,44.611-31.161,63.993-25.041c12.705,32.181,4.822,56.944,2.412,62.972    c14.84,16.415,23.926,29.212,23.926,54.625c0,89.496-54.625,96.636-106.466,102.479c8.532,7.325,15.765,21.238,15.765,43.032    c0,31.253-0.277,69.928-0.277,77.531c0,6.028,4.266,13.355,16.044,11.223c92.742-30.79,155.62-118.802,155.62-221.652    C485.999,129.403,381.665,31.747,253.032,31.747z M116.146,351.614c-1.206,0.927-0.928,3.061,0.647,4.82    c1.484,1.485,3.617,2.133,4.823,0.93c1.205-0.93,0.927-3.061-0.649-4.823C119.484,351.057,117.352,350.408,116.146,351.614z     M106.129,344.102c-0.648,1.205,0.278,2.688,2.134,3.616c1.483,0.929,3.339,0.649,3.988-0.649    c0.648-1.205-0.278-2.688-2.133-3.617C108.263,342.895,106.777,343.174,106.129,344.102z M136.178,377.116    c-1.483,1.206-0.927,3.989,1.205,5.75c2.133,2.134,4.822,2.413,6.028,0.927c1.205-1.204,0.649-3.987-1.206-5.748    C140.165,375.912,137.383,375.633,136.178,377.116z M125.605,363.485c-1.484,0.926-1.484,3.337,0,5.47    c1.484,2.134,3.988,3.061,5.193,2.134c1.483-1.206,1.483-3.617,0-5.75C129.5,363.207,127.09,362.278,125.605,363.485    L125.605,363.485z"/>
    </symbol>

    <symbol id="icon-dribbble" viewBox="0 0 20 20">
        <path d="M9.565 7.421c-1.358-2.414-2.811-4.383-2.917-4.528-2.191 1.036-3.826 3.055-4.337 5.487 0.206 0.004 3.482 0.043 7.254-0.959zM10.543 10.061c0.102-0.033 0.206-0.064 0.309-0.094-0.197-0.447-0.412-0.895-0.637-1.336-4.046 1.212-7.928 1.124-8.065 1.12-0.003 0.084-0.007 0.166-0.007 0.25 0 2.019 0.763 3.861 2.016 5.252l-0.005-0.006c0 0 2.15-3.814 6.389-5.186zM5.171 16.194v-0.004c-0.058-0.045-0.12-0.086-0.178-0.135 0.106 0.085 0.178 0.139 0.178 0.139zM8.118 2.372c-0.007 0.002-0.015 0.004-0.015 0.004 0.006-0.002 0.014-0.002 0.014-0.002l0.001-0.002zM15.189 4.104c-1.384-1.218-3.199-1.961-5.189-1.961-0.639 0-1.258 0.078-1.852 0.221 0.12 0.16 1.595 2.119 2.938 4.584 2.962-1.109 4.081-2.812 4.103-2.844zM10 19.2c-5.080 0-9.199-4.119-9.199-9.199-0.001-5.082 4.118-9.201 9.199-9.201s9.2 4.119 9.2 9.201c0 5.080-4.118 9.199-9.2 9.199zM11.336 11.286c-4.611 1.607-6.134 4.838-6.165 4.904 1.334 1.041 3.006 1.666 4.828 1.666 1.088 0 2.125-0.221 3.067-0.621-0.116-0.689-0.573-3.096-1.679-5.967-0.016 0.006-0.033 0.012-0.051 0.018zM11.69 8.12c0.184 0.373 0.358 0.754 0.523 1.139 0.059 0.135 0.114 0.272 0.17 0.406 2.713-0.342 5.385 0.238 5.473 0.256-0.019-1.863-0.686-3.572-1.787-4.912-0.018 0.023-1.279 1.843-4.379 3.111zM12.861 10.905c1.031 2.836 1.449 5.142 1.529 5.611 1.764-1.191 3.018-3.080 3.367-5.27-0.156-0.050-2.356-0.747-4.896-0.341z"></path>
    </symbol>

    <symbol id="icon-linkedin-circle" viewBox="0 0 20 20">
    <path d="M10 0.4c-5.302 0-9.6 4.298-9.6 9.6s4.298 9.6 9.6 9.6 9.6-4.298 9.6-9.6-4.298-9.6-9.6-9.6zM7.65 13.979h-1.944v-6.256h1.944v6.256zM6.666 6.955c-0.614 0-1.011-0.435-1.011-0.973 0-0.549 0.409-0.971 1.036-0.971s1.011 0.422 1.023 0.971c0 0.538-0.396 0.973-1.048 0.973zM14.75 13.979h-1.944v-3.467c0-0.807-0.282-1.355-0.985-1.355-0.537 0-0.856 0.371-0.997 0.728-0.052 0.127-0.065 0.307-0.065 0.486v3.607h-1.945v-4.26c0-0.781-0.025-1.434-0.051-1.996h1.689l0.089 0.869h0.039c0.256-0.408 0.883-1.010 1.932-1.010 1.279 0 2.238 0.857 2.238 2.699v3.699z"></path>
    </symbol>

    </defs>
</svg>
